<svg width="155" height="120" viewBox="0 0 155 120" fill="none" xmlns="http://www.w3.org/2000/svg">
<path d="M81.3416 16.7273V104H63.4439L28.7138 53.6307H28.1598V104H7.06605V16.7273H25.2195L59.5661 67.0114H60.2905V16.7273H81.3416Z" fill="white"/>
<path d="M84.9112 104V88.8295L116.744 60.9602C119.13 58.8011 121.161 56.8267 122.837 55.0369C124.513 53.2187 125.792 51.4006 126.673 49.5824C127.553 47.7358 127.994 45.733 127.994 43.5739C127.994 41.1591 127.468 39.0994 126.417 37.3949C125.366 35.6619 123.917 34.3267 122.07 33.3892C120.224 32.4517 118.107 31.983 115.721 31.983C113.306 31.983 111.19 32.4801 109.371 33.4744C107.553 34.4403 106.133 35.8466 105.11 37.6932C104.116 39.5398 103.619 41.7841 103.619 44.4261H83.6328C83.6328 38.4886 84.968 33.3608 87.6385 29.0426C90.3089 24.7244 94.0589 21.4006 98.8885 19.071C103.746 16.7131 109.386 15.5341 115.806 15.5341C122.425 15.5341 128.178 16.642 133.065 18.858C137.951 21.0739 141.729 24.1705 144.4 28.1477C147.099 32.0966 148.448 36.6847 148.448 41.9119C148.448 45.2358 147.781 48.5312 146.445 51.7983C145.11 55.0653 142.71 58.6733 139.244 62.6222C135.806 66.571 130.92 71.3011 124.585 76.8125L114.144 86.4432V86.9972H149.513V104H84.9112Z" fill="white"/>
</svg>
